<svg width="175" height="27" viewBox="0 0 175 27" fill="none" xmlns="http://www.w3.org/2000/svg">
<path d="M21.08 26H15.608L6.456 12.144V26H0.984V3.536H6.456L15.608 17.456V3.536H21.08V26ZM41.8785 16.784C41.8785 17.296 41.8465 17.8293 41.7825 18.384H29.3985C29.4838 19.4933 29.8358 20.3467 30.4545 20.944C31.0945 21.52 31.8732 21.808 32.7905 21.808C34.1558 21.808 35.1052 21.232 35.6385 20.08H41.4625C41.1638 21.2533 40.6198 22.3093 39.8305 23.248C39.0625 24.1867 38.0918 24.9227 36.9185 25.456C35.7452 25.9893 34.4332 26.256 32.9825 26.256C31.2332 26.256 29.6758 25.8827 28.3105 25.136C26.9452 24.3893 25.8785 23.3227 25.1105 21.936C24.3425 20.5493 23.9585 18.928 23.9585 17.072C23.9585 15.216 24.3318 13.5947 25.0785 12.208C25.8465 10.8213 26.9132 9.75467 28.2785 9.008C29.6438 8.26133 31.2118 7.888 32.9825 7.888C34.7105 7.888 36.2465 8.25067 37.5905 8.976C38.9345 9.70133 39.9798 10.736 40.7265 12.08C41.4945 13.424 41.8785 14.992 41.8785 16.784ZM36.2785 15.344C36.2785 14.4053 35.9585 13.6587 35.3185 13.104C34.6785 12.5493 33.8785 12.272 32.9185 12.272C32.0012 12.272 31.2225 12.5387 30.5825 13.072C29.9638 13.6053 29.5798 14.3627 29.4305 15.344H36.2785ZM55.3253 26L51.9013 21.04L49.0213 26H43.1013L48.9893 16.88L42.9413 8.144H49.0853L52.5093 13.072L55.3893 8.144H61.3093L55.3253 17.136L61.4693 26H55.3253ZM73.5298 21.36V26H70.7458C68.7618 26 67.2151 25.52 66.1058 24.56C64.9964 23.5787 64.4418 21.9893 64.4418 19.792V12.688H62.2658V8.144H64.4418V3.792H69.9138V8.144H73.4978V12.688H69.9138V19.856C69.9138 20.3893 70.0418 20.7733 70.2978 21.008C70.5538 21.2427 70.9804 21.36 71.5778 21.36H73.5298ZM97.6658 3.536L89.6978 26H82.8498L74.8818 3.536H80.7058L86.2738 20.496L91.8738 3.536H97.6658ZM102.705 6.288C101.745 6.288 100.955 6.01067 100.337 5.456C99.7394 4.88 99.4408 4.176 99.4408 3.344C99.4408 2.49067 99.7394 1.78667 100.337 1.232C100.955 0.655998 101.745 0.367998 102.705 0.367998C103.643 0.367998 104.411 0.655998 105.009 1.232C105.627 1.78667 105.937 2.49067 105.937 3.344C105.937 4.176 105.627 4.88 105.009 5.456C104.411 6.01067 103.643 6.288 102.705 6.288ZM105.425 8.144V26H99.9528V8.144H105.425ZM116.654 26.256C115.097 26.256 113.71 25.9893 112.494 25.456C111.278 24.9227 110.318 24.1973 109.614 23.28C108.91 22.3413 108.516 21.296 108.43 20.144H113.838C113.902 20.7627 114.19 21.264 114.702 21.648C115.214 22.032 115.844 22.224 116.59 22.224C117.273 22.224 117.796 22.096 118.158 21.84C118.542 21.5627 118.734 21.2107 118.734 20.784C118.734 20.272 118.468 19.8987 117.934 19.664C117.401 19.408 116.537 19.1307 115.342 18.832C114.062 18.5333 112.996 18.224 112.142 17.904C111.289 17.5627 110.553 17.04 109.934 16.336C109.316 15.6107 109.006 14.64 109.006 13.424C109.006 12.4 109.284 11.472 109.838 10.64C110.414 9.78667 111.246 9.11467 112.334 8.624C113.444 8.13333 114.756 7.888 116.27 7.888C118.51 7.888 120.27 8.44267 121.55 9.552C122.852 10.6613 123.598 12.1333 123.79 13.968H118.734C118.649 13.3493 118.372 12.8587 117.902 12.496C117.454 12.1333 116.857 11.952 116.11 11.952C115.47 11.952 114.98 12.08 114.638 12.336C114.297 12.5707 114.126 12.9013 114.126 13.328C114.126 13.84 114.393 14.224 114.926 14.48C115.481 14.736 116.334 14.992 117.486 15.248C118.809 15.5893 119.886 15.9307 120.718 16.272C121.55 16.592 122.276 17.1253 122.894 17.872C123.534 18.5973 123.865 19.5787 123.886 20.816C123.886 21.8613 123.588 22.8 122.99 23.632C122.414 24.4427 121.572 25.0827 120.462 25.552C119.374 26.0213 118.105 26.256 116.654 26.256ZM129.986 6.288C129.026 6.288 128.237 6.01067 127.618 5.456C127.021 4.88 126.722 4.176 126.722 3.344C126.722 2.49067 127.021 1.78667 127.618 1.232C128.237 0.655998 129.026 0.367998 129.986 0.367998C130.925 0.367998 131.693 0.655998 132.29 1.232C132.909 1.78667 133.218 2.49067 133.218 3.344C133.218 4.176 132.909 4.88 132.29 5.456C131.693 6.01067 130.925 6.288 129.986 6.288ZM132.706 8.144V26H127.234V8.144H132.706ZM144.8 26.256C143.05 26.256 141.472 25.8827 140.064 25.136C138.677 24.3893 137.578 23.3227 136.768 21.936C135.978 20.5493 135.584 18.928 135.584 17.072C135.584 15.2373 135.989 13.6267 136.799 12.24C137.61 10.832 138.72 9.75467 140.128 9.008C141.536 8.26133 143.114 7.888 144.864 7.888C146.613 7.888 148.192 8.26133 149.6 9.008C151.008 9.75467 152.117 10.832 152.928 12.24C153.738 13.6267 154.144 15.2373 154.144 17.072C154.144 18.9067 153.728 20.528 152.896 21.936C152.085 23.3227 150.965 24.3893 149.536 25.136C148.128 25.8827 146.549 26.256 144.8 26.256ZM144.8 21.52C145.845 21.52 146.73 21.136 147.456 20.368C148.202 19.6 148.576 18.5013 148.576 17.072C148.576 15.6427 148.213 14.544 147.488 13.776C146.784 13.008 145.909 12.624 144.864 12.624C143.797 12.624 142.912 13.008 142.208 13.776C141.504 14.5227 141.152 15.6213 141.152 17.072C141.152 18.5013 141.493 19.6 142.176 20.368C142.88 21.136 143.754 21.52 144.8 21.52ZM167.927 7.952C170.017 7.952 171.681 8.63467 172.919 10C174.177 11.344 174.807 13.2 174.807 15.568V26H169.367V16.304C169.367 15.1093 169.057 14.1813 168.439 13.52C167.82 12.8587 166.988 12.528 165.943 12.528C164.897 12.528 164.065 12.8587 163.447 13.52C162.828 14.1813 162.519 15.1093 162.519 16.304V26H157.047V8.144H162.519V10.512C163.073 9.72267 163.82 9.104 164.759 8.656C165.697 8.18667 166.753 7.952 167.927 7.952Z" fill="#1E88E5"/>
</svg>
